<svg width="30" height="30" viewBox="0 0 30 30" fill="none" xmlns="http://www.w3.org/2000/svg">
<path fill-rule="evenodd" clip-rule="evenodd" d="M8.72948 4.09283L3 6.18433V11.5028C3 16.3388 3.00984 16.8839 3.10853 17.5128C3.55279 20.3442 4.68867 22.5628 6.74318 24.612C7.96743 25.8332 9.23301 26.7457 10.9193 27.6232C12.185 28.2819 14.0548 29 14.5041 29C14.7335 29 16.1125 28.5313 16.8877 28.1898C18.879 27.3127 20.6503 26.1523 22.0495 24.8082C24.3668 22.5822 25.6709 19.8805 25.9482 16.731C25.9919 16.2355 26.0082 14.3087 25.9961 11.079L25.9779 6.1788L20.2484 4.08874C17.0972 2.93918 14.5055 1.99922 14.489 2C14.4725 2.00078 11.8807 2.94255 8.72948 4.09283ZM19.1228 5.73176C21.6722 6.66168 23.8324 7.44918 23.9231 7.48178L24.0881 7.54102V11.8289C24.0881 14.3738 24.0626 16.37 24.0254 16.7397C23.6372 20.5955 21.3367 23.7668 17.4287 25.8333C16.4423 26.3548 14.7952 27.0153 14.4808 27.0153C14.2643 27.0153 12.9049 26.4726 11.9992 26.0247C11.0461 25.5534 9.95385 24.8664 9.20943 24.2703C6.69722 22.2584 5.26617 19.7219 4.95102 16.7224C4.91809 16.4088 4.89145 14.2531 4.89085 11.8533L4.88983 7.54686L6.97464 6.7857C8.12131 6.36705 10.2743 5.57991 11.7592 5.03646C13.2441 4.49302 14.4654 4.0467 14.4732 4.04471C14.481 4.04267 16.5733 4.80185 19.1228 5.73176ZM16.0639 14.5205L12.5695 18.0236L10.9794 16.4304L9.3893 14.8373L8.71466 15.5136L8.03996 16.19L10.3046 18.4601L12.5692 20.7303L16.7532 16.5359L20.9373 12.3416L20.2789 11.6795C19.9168 11.3154 19.6065 11.0175 19.5894 11.0175C19.5724 11.0175 17.9859 12.5939 16.0639 14.5205Z" fill="#FF7E21"/>
</svg>
