<svg width="30" height="30" viewBox="0 0 30 30" fill="none" xmlns="http://www.w3.org/2000/svg">
<path d="M13.125 15L10 11.875L13.125 8.75" stroke="#FF7E21" stroke-width="1.5" stroke-linecap="round" stroke-linejoin="round"/>
<path fill-rule="evenodd" clip-rule="evenodd" d="M17.7175 26.0637L15.6163 24.6638C15.2425 24.415 14.7562 24.415 14.3837 24.6638L12.2825 26.0637C11.9088 26.3125 11.4225 26.3125 11.05 26.0637L8.95 24.6625C8.57625 24.4137 8.09 24.4137 7.7175 24.6625L6.7275 25.3225C5.98875 25.815 5 25.285 5 24.3988V5.9725C5 4.745 5.995 3.75 7.2225 3.75H22.7775C24.005 3.75 25 4.745 25 5.9725V24.3988C25 25.2863 24.0113 25.815 23.2725 25.3238L22.2825 24.6638C21.9088 24.415 21.4225 24.415 21.05 24.6638L18.9488 26.0637C18.5763 26.3125 18.09 26.3125 17.7175 26.0637V26.0637Z" stroke="#FF7E21" stroke-width="1.5" stroke-linecap="round" stroke-linejoin="round"/>
<path d="M10 11.875H16.5625C18.4613 11.875 20 13.4137 20 15.3125V15.3125C20 17.2113 18.4613 18.75 16.5625 18.75H15" stroke="#FF7E21" stroke-width="1.5" stroke-linecap="round" stroke-linejoin="round"/>
</svg>
